HIERARCHY
ROOT SpineBase
{
  OFFSET 0.000000 0.000000 0.000000
  CHANNELS 6 Xposition Yposition Zposition Zrotation Xrotation Yrotation
  JOINT SpineMid
  {
    OFFSET 0.000000 34.260413 -0.000000
    CHANNELS 3 Zrotation Xrotation Yrotation
    JOINT SpineShoulder
    {
      OFFSET -0.138845 25.251542 -1.090386
      CHANNELS 3 Zrotation Xrotation Yrotation
      JOINT Neck
      {
        OFFSET 0.060659 8.307412 -0.766330
        CHANNELS 3 Zrotation Xrotation Yrotation
        JOINT Head
        {
          OFFSET -0.995961 12.938555 7.970506
          CHANNELS 3 Zrotation Xrotation Yrotation
          End Site
          {
            OFFSET 0 0 0
          }
        }
      }
      JOINT ShoulderLeft
      {
        OFFSET 2.123568 -5.846399 -12.929609
        CHANNELS 3 Zrotation Xrotation Yrotation
        JOINT ElbowLeft
        {
          OFFSET 9.183393 -28.408085 -7.658553
          CHANNELS 3 Zrotation Xrotation Yrotation
          JOINT WristLeft
          {
            OFFSET 9.575951 -22.028385 -0.263564
            CHANNELS 3 Zrotation Xrotation Yrotation
            JOINT HandLeft
            {
              OFFSET -0.179202 -7.405302 3.326312
              CHANNELS 3 Zrotation Xrotation Yrotation
              JOINT HandTipLeft
              {
                OFFSET 2.091873 -8.066526 1.421184
                CHANNELS 3 Zrotation Xrotation Yrotation
                End Site
                {
                  OFFSET 0 0 0
                }
              }
              JOINT ThumbLeft
              {
                OFFSET -4.422666 -1.807037 3.209440
                CHANNELS 3 Zrotation Xrotation Yrotation
                End Site
                {
                  OFFSET 0 0 0
                }
              }
            }
          }
        }
      }
      JOINT ShoulderRight
      {
        OFFSET 11.143130 -5.222862 13.144973
        CHANNELS 3 Zrotation Xrotation Yrotation
        JOINT ElbowRight
        {
          OFFSET -18.725797 -25.600063 -5.851487
          CHANNELS 3 Zrotation Xrotation Yrotation
          JOINT WristRight
          {
            OFFSET 0.117205 -22.833628 3.891707
            CHANNELS 3 Zrotation Xrotation Yrotation
            JOINT HandRight
            {
              OFFSET 5.314425 -4.226464 2.796685
              CHANNELS 3 Zrotation Xrotation Yrotation
              JOINT HandTipRight
              {
                OFFSET -0.343234 -1.104809 -0.047022
                CHANNELS 3 Zrotation Xrotation Yrotation
                End Site
                {
                  OFFSET 0 0 0
                }
              }
              JOINT ThumbRight
              {
                OFFSET 0.285327 0.509829 -2.636990
                CHANNELS 3 Zrotation Xrotation Yrotation
                End Site
                {
                  OFFSET 0 0 0
                }
              }
            }
          }
        }
      }
    }
  }
  JOINT HipLeft
  {
    OFFSET -1.699114 1.334299 -8.047597
    CHANNELS 3 Zrotation Xrotation Yrotation
    JOINT KneeLeft
    {
      OFFSET 11.275854 -37.497310 0.602828
      CHANNELS 3 Zrotation Xrotation Yrotation
      JOINT AnkleLeft
      {
        OFFSET -0.353774 -39.852078 1.705444
        CHANNELS 3 Zrotation Xrotation Yrotation
        JOINT FootLeft
        {
          OFFSET 5.570777 -6.977391 -3.526992
          CHANNELS 3 Zrotation Xrotation Yrotation
          End Site
          {
            OFFSET 0 0 0
          }
        }
      }
    }
  }
  JOINT HipRight
  {
    OFFSET 2.460223 0.175728 -0.386286
    CHANNELS 3 Zrotation Xrotation Yrotation
    JOINT KneeRight
    {
      OFFSET -2.897930 -35.415022 4.976545
      CHANNELS 3 Zrotation Xrotation Yrotation
      JOINT AnkleRight
      {
        OFFSET 0.838326 -41.609221 6.867984
        CHANNELS 3 Zrotation Xrotation Yrotation
        JOINT FootRight
        {
          OFFSET 11.005872 -3.069438 -7.190326
          CHANNELS 3 Zrotation Xrotation Yrotation
          End Site
          {
            OFFSET 0 0 0
          }
        }
      }
    }
  }
}
MOTION
Frames: 13
Frame Time: 0.033333
-32.556675 87.194226 309.096898 -0.000000 -0.000000 -61.502398 -0.000000 0.000000 61.502398 -0.000000 0.000000 0.000000 -0.000000 0.000000 0.000000 0.000000 0.000000 0.000000 -0.000000 0.000000 0.000000 -0.000000 0.000000 0.000000 -0.000000 0.000000 0.000000 -0.000000 0.000000 0.000000 0.000000 0.000000 0.000000 0.000000 0.000000 0.000000 -0.000000 0.000000 0.000000 -0.000000 0.000000 0.000000 -0.000000 0.000000 0.000000 -0.000000 0.000000 0.000000 0.000000 0.000000 0.000000 0.000000 0.000000 0.000000 -0.000000 0.000000 61.502398 -0.000000 0.000000 0.000000 -0.000000 0.000000 0.000000 0.000000 0.000000 0.000000 -0.000000 0.000000 61.502398 -0.000000 0.000000 0.000000 -0.000000 0.000000 0.000000 0.000000 0.000000 0.000000
-31.936905 87.201553 308.673567 0.560759 0.243285 -61.384424 -0.055005 -0.608778 61.382941 -0.000000 0.000000 0.000000 -0.398773 -1.041473 0.162816 0.000000 0.000000 0.000000 -0.000000 0.000000 0.000000 -0.000000 0.000000 0.000000 1.125784 -0.199450 0.512200 -0.470050 -1.434509 -0.807046 0.000000 0.000000 0.000000 0.000000 0.000000 0.000000 -0.000000 0.000000 0.000000 -0.000000 0.000000 0.000000 -0.000000 0.000000 0.000000 -0.000000 0.000000 0.000000 0.000000 0.000000 0.000000 0.000000 0.000000 0.000000 0.012563 -1.472993 61.229905 0.725031 0.475157 0.151258 -4.856586 -3.677251 -0.670068 0.000000 0.000000 0.000000 0.414447 -2.185790 61.327085 1.158477 1.168471 0.055491 -0.000000 0.000000 0.000000 0.000000 0.000000 0.000000
-31.383911 87.187686 308.266869 1.000938 0.435432 -61.622258 -0.092675 -1.087598 61.617575 -0.000000 0.000000 0.000000 -0.725439 -1.872137 0.294022 0.000000 0.000000 0.000000 0.711227 -0.285535 -0.281898 -0.566846 -0.906326 -0.232151 1.953381 1.077924 1.425887 -0.849201 -2.782653 -1.441878 0.000000 0.000000 0.000000 0.000000 0.000000 0.000000 -0.000000 0.000000 0.000000 -0.000000 0.000000 0.000000 -0.000000 0.000000 0.000000 -0.000000 0.000000 0.000000 0.000000 0.000000 0.000000 0.000000 0.000000 0.000000 0.056122 -2.733796 61.324687 1.373012 0.920371 0.286820 -8.345176 -6.319786 -1.407740 0.000000 0.000000 0.000000 0.791479 -4.004953 61.532608 2.143772 2.167350 0.083704 -0.000000 0.000000 0.000000 0.000000 0.000000 0.000000
-30.897693 87.152624 307.876804 1.320158 0.576278 -62.212753 -0.405453 -0.635214 62.227463 0.111950 0.087930 0.029560 -1.663182 -3.207437 0.321405 0.000000 0.000000 0.000000 0.230382 -1.191085 -0.442072 -0.618943 -1.184645 -0.316674 2.623344 1.902158 1.944643 -1.121139 -4.078610 -1.914258 0.000000 0.000000 0.000000 0.000000 0.000000 0.000000 -0.681782 -0.726070 -0.061872 -0.000000 0.000000 0.000000 -0.000000 0.000000 0.000000 -0.000000 0.000000 0.000000 0.000000 0.000000 0.000000 0.000000 0.000000 0.000000 0.152023 -3.780064 61.785871 1.943540 1.334800 0.408007 -10.312445 -7.875908 -1.996034 0.000000 0.000000 0.000000 1.166670 -5.468123 62.109828 3.204076 3.910303 0.136538 -0.236316 -0.900459 -0.058932 0.000000 0.000000 0.000000
-30.478250 87.096368 307.503371 1.518313 0.665790 -63.138690 -0.467310 -0.676803 63.155552 0.145396 0.091965 0.037649 -2.010073 -3.731915 0.373700 0.000000 0.000000 0.000000 0.165250 -1.535265 -0.545711 -0.521068 -1.340711 -0.377543 3.085041 2.932847 2.335689 -1.270329 -5.360939 -2.227974 0.000000 0.000000 0.000000 0.000000 0.000000 0.000000 -1.708615 -0.978920 0.184771 0.859098 0.108285 -0.277853 -0.000000 0.000000 0.000000 -0.000000 0.000000 0.000000 0.000000 0.000000 0.000000 0.000000 0.000000 0.000000 0.312298 -4.608457 62.598066 2.436294 1.717749 0.516050 -10.685328 -8.355024 -2.305197 0.000000 0.000000 0.000000 1.559220 -6.583419 63.037284 3.866151 4.740663 0.133265 -0.221825 -1.035914 -0.059405 0.000000 0.000000 0.000000
-30.125583 87.018916 307.146571 1.595526 0.704034 -64.369461 -0.496116 -0.633557 64.389470 0.176836 0.083279 0.044888 -2.250320 -3.975015 0.403733 0.000000 0.000000 0.000000 0.034177 -1.852693 -0.630993 -0.275711 -1.371064 -0.414094 3.333339 4.197759 2.598406 -1.280220 -6.673951 -2.380054 0.000000 0.000000 0.000000 0.000000 0.000000 0.000000 -1.981929 -1.112801 0.228499 0.994561 0.149554 -0.340085 -0.000000 0.000000 0.000000 -0.000000 0.000000 0.000000 0.000000 0.000000 0.000000 0.000000 0.000000 0.000000 0.538827 -5.214628 63.731333 2.178595 1.344626 0.609381 -8.737713 -7.059016 -2.162443 0.000000 0.000000 0.000000 1.971920 -7.356459 64.280092 4.338656 5.344787 0.119118 -0.159493 -1.084901 -0.049619 0.000000 0.000000 0.000000
-29.766695 86.925212 306.741111 1.529046 0.689979 -67.435152 -0.508103 -0.371731 67.465082 0.236099 0.064008 0.058395 -2.572123 -4.035902 0.427637 0.000000 0.000000 0.000000 -0.380745 -2.365638 -0.736660 0.488797 -1.202963 -0.441063 3.357406 5.509819 2.894151 -0.324763 -7.838479 -2.227070 0.000000 0.000000 0.000000 0.000000 0.000000 0.000000 -2.370281 -1.298964 0.280465 1.142355 0.214715 -0.423223 -0.000000 0.000000 0.000000 -0.000000 0.000000 0.000000 0.000000 0.000000 0.000000 0.000000 0.000000 0.000000 1.113159 -5.948766 66.645498 2.765635 1.567830 0.775097 -7.663508 -6.327852 -2.239343 0.000000 0.000000 0.000000 2.585336 -8.382233 67.317843 5.829538 6.231431 0.175500 -0.616656 -1.309192 -0.134970 0.000000 0.000000 0.000000
-29.412247 86.819344 306.353108 1.461137 0.644925 -69.307997 -0.504752 -0.194198 69.345072 0.256887 0.038493 0.066001 -2.491362 -3.389527 0.347389 0.000000 0.000000 0.000000 -0.772103 -2.722514 -0.800863 1.287515 -0.896656 -0.436300 3.377755 8.351472 2.992962 -0.821639 -10.688166 -2.335712 0.000000 0.000000 0.000000 0.000000 0.000000 0.000000 -2.577740 -1.383070 0.338721 1.219096 0.291186 -0.498343 -0.000000 0.000000 0.000000 -0.000000 0.000000 0.000000 0.000000 0.000000 0.000000 0.000000 0.000000 0.000000 1.507919 -6.454370 68.410732 3.170545 1.647800 0.892419 -2.814276 -3.070533 -1.878699 0.000000 0.000000 0.000000 2.916258 -7.890954 69.246149 4.888638 4.872721 0.081047 -0.000000 0.000000 0.000000 0.000000 0.000000 0.000000
-29.051097 86.694094 305.942644 1.449042 0.654091 -69.828168 -0.499870 -0.085338 69.870222 0.286047 0.015166 0.073618 -2.374372 -2.684498 0.254539 0.000000 0.000000 0.000000 -1.062583 -2.904390 -0.826548 1.719780 -0.659022 -0.410229 2.882591 11.321130 2.722517 -0.969356 -13.122366 -2.049645 0.000000 0.000000 0.000000 0.000000 0.000000 0.000000 -2.682725 -1.484430 0.378750 1.199905 0.370269 -0.552819 -0.000000 0.000000 0.000000 -0.000000 0.000000 0.000000 0.000000 0.000000 0.000000 0.000000 0.000000 0.000000 1.758715 -6.873876 68.849046 3.415427 1.663460 0.979440 4.340903 1.903711 -1.654396 0.000000 0.000000 0.000000 3.162799 -7.882646 69.801546 3.647559 5.244023 -0.028132 1.208082 -0.211150 0.197282 0.000000 0.000000 0.000000
-28.831493 86.606338 305.589427 1.385029 0.694331 -69.773527 -0.444338 -0.050239 69.816062 0.315048 0.006601 0.076141 -2.287902 -2.409039 0.214782 0.000000 0.000000 0.000000 -1.258857 -2.856317 -0.773692 1.819687 -0.421600 -0.356611 2.653828 14.029564 2.337489 -0.738779 -15.123194 -1.535823 0.000000 0.000000 0.000000 0.000000 0.000000 0.000000 -2.694313 -1.475849 0.376263 1.194745 0.370376 -0.551676 -0.000000 0.000000 0.000000 -0.000000 0.000000 0.000000 0.000000 0.000000 0.000000 0.000000 0.000000 0.000000 1.859683 -6.897822 68.776196 3.327905 1.435118 0.998178 12.337044 7.591015 -2.001385 0.000000 0.000000 0.000000 3.455616 -7.831848 69.794604 3.013087 5.226048 -0.106644 1.753198 0.029674 0.289470 0.000000 0.000000 0.000000
-29.014168 86.423376 305.538815 0.958329 0.436284 -68.612457 -0.418036 0.162740 68.651867 0.296363 -0.041374 0.066102 -2.153856 -2.224102 0.305516 0.000000 0.000000 0.000000 -1.129807 -2.448577 -0.671367 1.561053 -0.066999 -0.214468 2.506686 16.770060 1.765846 -1.786073 -17.627618 -1.595962 0.000000 0.000000 0.000000 0.000000 0.000000 0.000000 -2.356354 -1.379407 0.502798 1.105509 0.528178 -0.648028 -0.000000 0.000000 0.000000 -0.000000 0.000000 0.000000 0.000000 0.000000 0.000000 0.000000 0.000000 0.000000 1.426660 -5.607957 67.737290 2.512406 0.652811 0.861094 19.706807 12.758314 -2.959000 0.000000 0.000000 0.000000 3.335393 -6.941005 68.659849 2.274324 5.187511 -0.166119 2.012266 0.015676 0.332107 0.000000 0.000000 0.000000
-29.022141 86.435731 305.213839 0.761981 0.490337 -67.849969 -0.324276 0.178558 67.884447 0.245400 -0.113417 0.054918 -1.969087 -2.366165 0.318813 0.000000 0.000000 0.000000 -1.065018 -2.119242 -0.542111 1.093295 0.281150 -0.063070 3.275252 18.419345 1.419855 -2.799047 -19.807319 -2.001692 0.000000 0.000000 0.000000 0.000000 0.000000 0.000000 -2.141303 -1.254843 0.503624 1.093929 0.501979 -0.625767 -0.000000 0.000000 0.000000 -0.000000 0.000000 0.000000 0.000000 0.000000 0.000000 0.000000 0.000000 0.000000 1.565401 -5.080215 66.995281 1.902374 0.201307 0.841511 26.052309 16.999849 -4.344000 0.000000 0.000000 0.000000 5.064125 -8.947567 68.094880 3.637728 7.677988 -0.259034 1.999291 -0.121067 0.329534 0.000000 0.000000 0.000000
-28.795465 86.573734 304.622713 0.924812 0.915822 -66.908879 -0.097977 -0.174069 66.936102 0.123870 -0.257857 0.039913 -1.893422 -2.643400 0.385367 0.000000 0.000000 0.000000 -1.108812 -1.694472 -0.344092 0.251607 1.017195 0.257969 4.418109 18.021123 0.910526 -4.127008 -20.790330 -2.705637 0.000000 0.000000 0.000000 0.000000 0.000000 0.000000 -2.044628 -1.001270 0.410307 1.195717 0.313710 -0.509631 -0.000000 0.000000 0.000000 -0.000000 0.000000 0.000000 0.000000 0.000000 0.000000 0.000000 0.000000 0.000000 2.116796 -5.527463 65.979690 1.605085 0.112111 0.933021 32.598476 21.522540 -6.026775 0.000000 0.000000 0.000000 4.851458 -8.046721 67.161543 2.944706 7.561634 -0.219258 1.653350 -0.874604 0.267503 0.000000 0.000000 0.000000
